HIERARCHY
ROOT ui
{
	 OFFSET 0 0 0
	 CHANNELS 3 XPosition YPosition Z Position
	 EndSite
	 {
	 OFFSET 0 -1 0
	 }
}
ROOT li
{
	 OFFSET 0 0 0
	 CHANNELS 3 XPosition YPosition Z Position
	 EndSite
	 {
	 OFFSET 0 -1 0
	 }
}
ROOT ul
{
	 OFFSET 0 0 0
	 CHANNELS 3 XPosition YPosition Z Position
	 EndSite
	 {
	 OFFSET 0 -1 0
	 }
}
ROOT ll
{
	 OFFSET 0 0 0
	 CHANNELS 3 XPosition YPosition Z Position
	 EndSite
	 {
	 OFFSET 0 -1 0
	 }
}
ROOT tt
{
	 OFFSET 0 0 0
	 CHANNELS 3 XPosition YPosition Z Position
	 EndSite
	 {
	 OFFSET 0 -1 0
	 }
}
ROOT tb
{
	 OFFSET 0 0 0
	 CHANNELS 3 XPosition YPosition Z Position
	 EndSite
	 {
	 OFFSET 0 -1 0
	 }
}
ROOT td
{
	 OFFSET 0 0 0
	 CHANNELS 3 XPosition YPosition Z Position
	 EndSite
	 {
	 OFFSET 0 -1 0
	 }
}
ROOT v
{
	 OFFSET 0 0 0
	 CHANNELS 3 XPosition YPosition Z Position
	 EndSite
	 {
	 OFFSET 0 -1 0
	 }
}
ROOT bn
{
	 OFFSET 0 0 0
	 CHANNELS 3 XPosition YPosition Z Position
	 EndSite
	 {
	 OFFSET 0 -1 0
	 }
}
MOTION
Frames: 10
Frame Time: 0.002
-0.0013364169597625732	2.444349974393845E-4	0		0.4588750305175781	-2.42260400390625	0		-1.0182991943359374	0.09076933288574218	0		-0.7466093139648438	-2.53577392578125	0		1.391559326171875	-0.747957763671875	0		3.341228515625	-0.136910400390625	0		4.79081103515625	-0.17975689697265626	0		5.57459228515625	0.12261825561523437	0		-0.1693337860107422	5.85075537109375	0		
0.01090046215057373	-0.0060810670852661135	0		0.5104886474609375	-2.43032861328125	0		-0.9440086059570313	0.08952579498291016	0		-0.7828494262695312	-2.53262548828125	0		1.3591512451171874	-0.7345127563476562	0		3.33453759765625	-0.13846487426757811	0		4.79015087890625	-0.17915000915527343	0		5.59365087890625	0.10411032867431641	0		-0.1709691162109375	5.850560546875	0		
-0.00576894998550415	-0.0040461249351501465	0		0.4582806396484375	-2.422780517578125	0		-1.0197134399414063	0.09011074829101562	0		-0.7831282348632812	-2.53291259765625	0		1.3694320068359376	-0.7465784912109374	0		3.324889404296875	-0.13596693420410155	0		4.789484375	-0.17852024841308595	0		5.58393896484375	0.10498014831542969	0		-0.1726273193359375	5.85037353515625	0		
0.003670522928237915	0.006687123775482178	0		0.4989136657714844	-2.42933642578125	0		-1.0163717651367188	0.09374912261962891	0		-0.8132948608398437	-2.523833984375	0		1.38391015625	-0.7426783447265625	0		3.329137939453125	-0.14262713623046874	0		4.78597705078125	-0.16484712219238282	0		5.5873251953125	0.113701171875	0		-0.29343438720703124	5.83760595703125	0		
0.015923853874206542	4.038569927215576E-4	0		0.4907568664550781	-2.418296630859375	0		-0.9410783081054688	0.09156760406494141	0		-0.7056658935546875	-2.53335546875	0		1.39841162109375	-0.7377645263671875	0		3.350752685546875	-0.11948457336425782	0		4.7943046875	-0.16631791687011718	0		5.59072509765625	0.12241635131835937	0		-0.2950442810058594	5.83742626953125	0		
0.02529628372192383	0.0021747989654541016	0		0.5133967895507813	-2.4256015625	0		-0.9467764282226563	0.08836428833007813	0		-0.78190966796875	-2.531705810546875	0		1.3708079833984375	-0.7433547973632812	0		3.316927734375	-0.135704833984375	0		4.78755419921875	-0.1766272277832031	0		5.581873046875	0.10725285339355468	0		-0.31268280029296874	5.82944873046875	0		
-0.002321260929107666	0.002386900901794434	0		0.48413287353515627	-2.425295654296875	0		-0.9474082641601562	0.08812814331054687	0		-0.748218994140625	-2.537303955078125	0		1.3773875732421874	-0.73533349609375	0		3.322339599609375	-0.13438839721679688	0		4.7869609375	-0.17602845764160155	0		5.570455078125	0.12709101104736328	0		-0.17890931701660157	5.84977001953125	0		
0.0069912710189819335	-0.006804048061370849	0		0.4838778076171875	-2.42530859375	0		-1.0230010375976561	0.08876183319091797	0		-0.7844228515625	-2.5340810546875	0		1.37690234375	-0.7352247924804688	0		3.326693359375	-0.14107035827636719	0		4.7863994140625	-0.17545516967773436	0		5.58063818359375	0.10864878845214844	0		-0.18029188537597657	5.84966650390625	0		
5.852429866790771E-4	0.006204217910766602	0		0.48565365600585936	-2.423328369140625	0		-1.0195195922851563	0.09253002166748046	0		-0.7806112060546875	-2.53028271484375	0		1.372399169921875	-0.739065185546875	0		3.315315673828125	-0.12658878326416015	0		4.7830146484375	-0.16187857055664062	0		5.5841611328125	0.11724799346923828	0		-0.3158267517089844	5.82807421875	0		
6.656699627637863E-5	0.00616767406463623	0		0.46046975708007815	-2.41803515625	0		-1.0200481567382813	0.09237660217285157	0		-0.7808392944335938	-2.53040869140625	0		1.3719658203125	-0.738944580078125	0		3.32073486328125	-0.13331103515625	0		4.79351416015625	-0.1614879913330078	0		5.5836298828125	0.11785116577148437	0		-0.3028924560546875	5.8388466796875	0		
